<svg xmlns="http://www.w3.org/2000/svg" width="623.716" height="623.716" viewBox="0 0 623.716 623.716"><title>end_1</title><g id="レイヤー_2" data-name="レイヤー 2"><g id="日本語"><rect x="88.412" y="88.412" width="446.891" height="446.891" rx="10" ry="10" transform="translate(-129.176 311.858) rotate(-45)" fill="#101010"/><path d="M307.529,248.859a6.428,6.428,0,0,1-8.947,2.913,89.259,89.259,0,0,1-16.75-12.173,87.563,87.563,0,0,1-19.039,13.213,5.919,5.919,0,0,1-8.115-2.913,6.214,6.214,0,0,1,.1-5.1,5.523,5.523,0,0,1-3.017,1.976,5.789,5.789,0,0,1-5.722-1.664l-4.474.624v36.2a6.45,6.45,0,1,1-12.9,0V247.507l-10.612,1.352a6.015,6.015,0,1,1-1.248-11.964l8.011-10.612a108.09,108.09,0,0,0-9.572-10.3,5.536,5.536,0,0,1-.416-7.7,5.8,5.8,0,0,1,5.306-1.873c2.6-4.058,4.89-8.219,6.762-11.86a5.939,5.939,0,1,1,10.4,5.722c-2.5,4.161-5.514,8.739-8.739,13.212l2.913,3.225c3.121-4.578,5.826-8.947,8.115-12.9a6.154,6.154,0,0,1,8.531-2.185,6.226,6.226,0,0,1,2.081,8.843c-5.2,7.8-11.756,16.646-18.727,25.385l9.988-.832-1.249-2.393a5.628,5.628,0,0,1,1.873-7.49,5.694,5.694,0,0,1,8.011,1.976,77.8,77.8,0,0,1,5.618,12.172,6.014,6.014,0,0,1-.312,4.474,5.979,5.979,0,0,1,1.976-1.56,67.534,67.534,0,0,0,16.334-11.132,91.659,91.659,0,0,1-6.45-8.843l-2.081,2.5a6.45,6.45,0,1,1-9.675-8.531,66.856,66.856,0,0,0,12.9-21.327,6.254,6.254,0,0,1,11.756,4.265h15.19a7.443,7.443,0,0,1,6.97,10.091,80.157,80.157,0,0,1-12.172,21.432,79.256,79.256,0,0,0,14.565,9.779A6.44,6.44,0,0,1,307.529,248.859ZM227,258.014a95.185,95.185,0,0,1-3.433,18,5.735,5.735,0,0,1-7.6,3.745,5.652,5.652,0,0,1-3.329-7.074,81.8,81.8,0,0,0,3.225-15.814A5.6,5.6,0,0,1,227,258.014Zm30.171,8.323A5.732,5.732,0,1,1,245.835,268a92.276,92.276,0,0,0-1.976-9.883,5.653,5.653,0,0,1,10.924-2.913A102.656,102.656,0,0,1,257.175,266.337Zm42.759,16.646a6.633,6.633,0,0,1-8.947,1.976,138.555,138.555,0,0,0-24.865-12.068,5.859,5.859,0,0,1,3.953-11.028,174.084,174.084,0,0,1,27.57,11.756A6.443,6.443,0,0,1,299.934,282.983Zm-24.241-27.466a5.468,5.468,0,0,1-1.769-7.283,5.577,5.577,0,0,1,7.491-2.185,81.994,81.994,0,0,1,9.675,6.242,5.9,5.9,0,0,1,.728,8.947,6.078,6.078,0,0,1-8.219.208A62.625,62.625,0,0,0,275.694,255.517Zm12.588-44.944H274.965l-.312.52a63.861,63.861,0,0,0,7.179,10.924A58.84,58.84,0,0,0,288.282,210.574Z" fill="#99f4f2"/><path d="M398.563,208.6a369.032,369.032,0,0,1-29.235,24.761v38.7c0,11.964-4.057,15.5-16.125,15.5-2.913,0-6.138,0-9.155-.1a6.972,6.972,0,0,1,.312-13.941c1.769,0,3.537.1,5.2.1,4.265,0,5.514-.624,5.514-3.434v-41.2a7.1,7.1,0,0,1,7.075-7.178c.312,0,.728.1,1.04.1,5.2-4.265,10.3-8.947,14.878-13.317H325.946a6.172,6.172,0,0,1-6.138-6.242,6.083,6.083,0,0,1,6.138-6.138h67.728A7.172,7.172,0,0,1,398.563,208.6Z" fill="#99f4f2"/><path d="M209.421,383.832c-8.115,21.12-22.576,28.819-38.6,28.819-22.264,0-32.147-12.589-32.147-37.453,0-8.74.1-24.865.416-44.216.1-5.723,3.225-9.259,8.011-9.259,4.994,0,8.115,3.953,7.8,9.571-1.144,18.935-1.664,35.061-1.664,43.591,0,17.271,5.2,23.409,18,23.409,11.652,0,18.935-6.034,24.241-20.5,1.769-4.89,6.034-7.8,10.612-5.93C210.565,373.636,211.5,378.422,209.421,383.832Z" fill="#99f4f2"/><path d="M302.12,403.7c-2.185,3.537-6.658,4.682-12.172.52a94.408,94.408,0,0,0-15.294-9.468c-1.145,12.172-7.491,18.1-23.408,18.1-16.23,0-24.969-8.739-24.969-18.1,0-10.2,8.323-18.206,25.7-18.206a73.6,73.6,0,0,1,8.219.416l-.312-9.051H235.536c-3.953,0-6.867-2.5-6.867-6.451s2.809-6.346,6.763-6.346h24.136l-.312-9.468H233.143c-3.953,0-6.762-2.705-6.762-6.451s2.809-6.45,6.762-6.45h25.8c0-1.353-.208-2.705-.208-3.954a7.519,7.519,0,0,1,7.7-8.219c4.786,0,8.011,3.225,7.8,8.323l-.208,3.85h24.032c3.954,0,6.763,2.288,6.763,6.45s-2.809,6.451-6.763,6.451H273.926c0,3.121.1,6.346.1,9.468h22.056c3.953,0,6.97,2.184,6.97,6.346,0,3.954-3.017,6.451-7.179,6.451H274.238l.312,11.964c8.947,2.6,17.478,6.658,23.824,11.653C303.16,395.38,304.408,400.061,302.12,403.7ZM260.4,389.553a43.712,43.712,0,0,0-9.572-1.144c-7.7,0-11.652,2.6-11.652,6.346,0,3.537,3.537,5.93,11.028,5.93,8.011,0,10.2-2.5,10.2-11.028Z" fill="#99f4f2"/><path d="M394.09,383.832c-8.115,21.12-22.577,28.819-38.6,28.819-22.264,0-32.147-12.589-32.147-37.453,0-8.74.1-24.865.416-44.216.1-5.723,3.225-9.259,8.011-9.259,4.994,0,8.115,3.953,7.8,9.571-1.145,18.935-1.665,35.061-1.665,43.591,0,17.271,5.2,23.409,18,23.409,11.652,0,18.934-6.034,24.241-20.5,1.769-4.89,6.034-7.8,10.611-5.93C395.235,373.636,396.17,378.422,394.09,383.832Z" fill="#99f4f2"/><path d="M442.781,347.106c-3.537,21.016-9.468,41.3-18.1,58.989-2.6,5.2-7.8,6.242-11.444,4.162-3.329-1.873-4.786-5.93-2.184-11.236,7.907-16.021,13.941-32.043,17.062-51.915H417.4c-4.265,0-7.179-2.7-7.179-6.554,0-3.746,3.121-6.451,7.179-6.451h12.276l.313-5.1c.312-5.2,3.953-8.427,8.427-8.011s7.283,3.849,6.762,9.155l-.52,3.954h21.64c4.577,0,6.97,2.809,6.97,6.451,0,3.433-2.393,6.554-6.97,6.554Zm46.609,62.838a89.113,89.113,0,0,1-10.2.624c-20.911,0-31.731-4.265-31.731-14.982a28.958,28.958,0,0,1,2.5-11.132c1.665-3.849,4.994-5.826,8.427-4.682,3.329,1.145,5.2,4.37,3.641,8.947a11.529,11.529,0,0,0-.833,3.641c0,4.682,6.867,5.514,17.687,5.514,3.329,0,6.242-.312,9.779-.52,4.786-.312,7.907.833,8.322,5.1C497.5,407.136,494.383,409.424,489.389,409.945Zm-31.523-55.451a129.2,129.2,0,0,1,19.142-1.457,116.065,116.065,0,0,1,12.277.52c4.473.52,6.658,3.434,6.346,6.971-.312,3.329-2.7,5.929-7.7,5.618-2.809-.209-5.93-.416-9.156-.416a168.968,168.968,0,0,0-19.142,1.248c-3.954.416-7.179-1.145-7.7-5.2C451.52,358.343,453.392,355.325,457.866,354.494Z" fill="#99f4f2"/></g></g></svg>