<svg xmlns="http://www.w3.org/2000/svg" width="145.02382" height="145.08442" viewBox="0 0 145.02382 145.08442">
  <defs>
    <style>
      .a {
        fill: #fff;
      }

      .b {
        fill: #e6e6e6;
      }

      .c {
        fill: #727272;
      }

      .d {
        fill: #e60019;
      }

      .e {
        fill: #3f3b3a;
      }

      .f {
        fill: #3f3a3a;
      }
    </style>
  </defs>
  <title>アセット 1</title>
  <g>
    <rect class="a" width="145.02382" height="145.08442"/>
    <g>
      <rect class="b" x="0.02082" width="72.89434" height="25.08785"/>
      <rect class="c" x="72.91516" width="72.10865" height="25.08785"/>
    </g>
    <rect class="d" x="0.01045" y="113.6114" width="145.01336" height="31.47301"/>
    <g>
      <path class="e" d="M14.2882,80.14316l2.68735,17.97219h.071l2.86207-17.97219h4.69817l2.86039,17.97219h.06574l2.69426-17.97219h4.68949l-4.423,24.30562H25.01511L22.29488,86.814h-.07265l-2.722,17.63481H14.02338L9.59,80.14316Z"/>
      <path class="e" d="M42.39723,87.205a11.69382,11.69382,0,0,1,1.12652-3.999,6.27573,6.27573,0,0,1,2.50741-2.60257,8.79174,8.79174,0,0,1,4.38835-.9379,8.83563,8.83563,0,0,1,4.39357.9379A6.2742,6.2742,0,0,1,57.31527,83.206a11.42957,11.42957,0,0,1,1.12138,3.999,46.76548,46.76548,0,0,1,.25091,5.08747,46.46927,46.46927,0,0,1-.25091,5.10475,11.41192,11.41192,0,0,1-1.12138,3.99036A5.94873,5.94873,0,0,1,54.81309,103.94a9.291,9.291,0,0,1-4.39357.88421,9.2444,9.2444,0,0,1-4.38835-.88421,5.95074,5.95074,0,0,1-2.50741-2.55242,11.67652,11.67652,0,0,1-1.12652-3.99036,51.53369,51.53369,0,0,1,0-10.19222Zm4.76914,9.263a11.49045,11.49045,0,0,0,.47932,2.7911,3.04486,3.04486,0,0,0,1.01746,1.56092,3.31218,3.31218,0,0,0,3.511,0,3.02742,3.02742,0,0,0,1.02091-1.56092,11.44156,11.44156,0,0,0,.4724-2.7911c.08133-1.15248.11775-2.53683.11775-4.17553,0-1.6318-.03641-3.01269-.11775-4.14789a11.55077,11.55077,0,0,0-.4724-2.79119,3.09791,3.09791,0,0,0-1.02091-1.59025,3.40166,3.40166,0,0,0-3.511,0,3.11607,3.11607,0,0,0-1.01746,1.59025,11.60193,11.60193,0,0,0-.47932,2.79119c-.07442,1.13521-.116,2.51609-.116,4.14789C47.0504,93.93122,47.092,95.31557,47.16637,96.468Z"/>
      <path class="e" d="M78.1047,80.14316a6.85718,6.85718,0,0,1,4.76214,1.5401,6.09868,6.09868,0,0,1,1.70268,4.72227,7.30082,7.30082,0,0,1-.988,3.99736,4.5428,4.5428,0,0,1-3.05938,1.99859v.06406A4.47488,4.47488,0,0,1,83.20254,93.656a5.0322,5.0322,0,0,1,1.0607,2.966c.045.45513.07619.94649.10038,1.4795.019.533.04332,1.13.06406,1.7841.05706,1.2961.11766,2.28414.21113,2.96245a1.88642,1.88642,0,0,0,.88421,1.39825v.20245h-5.3072a2.53443,2.53443,0,0,1-.47932-1.17321c-.06574-.44476-.11252-.90335-.135-1.3792l-.13325-4.66353a3.89893,3.89893,0,0,0-.72154-2.246,2.61615,2.61615,0,0,0-2.18553-.822H73.95167v10.284h-4.9023V80.14316ZM75.98836,90.76278a4.01619,4.01619,0,0,0,2.72713-.83229,3.58144,3.58144,0,0,0,.95526-2.81715c0-2.23923-1.14043-3.364-3.409-3.364h-2.3101v7.01342Z"/>
      <path class="e" d="M96.378,80.14316h4.9023v20.28929h8.67808v4.01632H96.378Z"/>
      <path class="e" d="M127.39938,80.14316a8.6956,8.6956,0,0,1,4.115.83229,5.98717,5.98717,0,0,1,2.445,2.38453,10.8869,10.8869,0,0,1,1.1733,3.724,34.92538,34.92538,0,0,1,.30628,4.86943,33.67372,33.67372,0,0,1-.39975,5.57024,10.70846,10.70846,0,0,1-1.33588,3.89689,5.91994,5.91994,0,0,1-2.561,2.28592,9.57173,9.57173,0,0,1-4.04928.74236h-7.728V80.14316Zm-.95686,20.69241a4.28519,4.28519,0,0,0,2.08684-.43776,3.08258,3.08258,0,0,0,1.239-1.46736,8.76229,8.76229,0,0,0,.61425-2.68567c.09347-1.1127.14884-2.48836.14884-4.15471,0-1.38089-.04155-2.59052-.13493-3.64085a8.83874,8.83874,0,0,0-.56242-2.60434,3.28132,3.28132,0,0,0-1.258-1.573,4.20075,4.20075,0,0,0-2.23054-.52255H124.2708v17.08621Z"/>
    </g>
    <g>
      <g>
        <path class="f" d="M45.68333,34.89936a5.22311,5.22311,0,0,0-6.64485,3.22718l-4.6739,13.48009L25.536,37.42228a5.21843,5.21843,0,0,0-9.5537.73022L8.0517,61.03577a5.2232,5.2232,0,1,0,9.87035,3.421L22.5994,50.97848l8.846,14.21891a5.21992,5.21992,0,0,0,9.533-.76478L48.9106,41.54935A5.22658,5.22658,0,0,0,45.68333,34.89936Z"/>
        <path class="f" d="M130.96234,59.0284l-6.6639-6.97877,12.26533-7.80079a5.00671,5.00671,0,0,0-5.3678-8.45313L114.63923,46.33054l1.65944-4.80192a5.22783,5.22783,0,1,0-9.87894-3.42449l-7.9219,22.8814a5.22485,5.22485,0,1,0,9.8738,3.42112l3.601-10.40167,11.5662,12.113a5.13253,5.13253,0,1,0,7.42354-7.08961Z"/>
        <path class="f" d="M91.00846,34.8734A5.23843,5.23843,0,0,0,84.355,38.10413l-2.90717,8.35275-11.97109.00868,1.70968-4.91621a5.22843,5.22843,0,0,0-9.8808-3.42281L53.37683,61.01326a5.22292,5.22292,0,0,0,9.87035,3.41935l2.93826-8.46873,11.97287-.00868-1.72872,5.03033a5.22405,5.22405,0,1,0,9.87212,3.42112l7.93058-22.878A5.23123,5.23123,0,0,0,91.00846,34.8734Z"/>
      </g>
      <g>
        <path class="e" d="M45.68333,34.89936a5.22311,5.22311,0,0,0-6.64485,3.22718l-4.6739,13.48009L25.536,37.42228a5.21843,5.21843,0,0,0-9.5537.73022L8.0517,61.03577a5.2232,5.2232,0,1,0,9.87035,3.421L22.5994,50.97848l8.846,14.21891a5.21992,5.21992,0,0,0,9.533-.76478L48.9106,41.54935A5.22658,5.22658,0,0,0,45.68333,34.89936Z"/>
        <path class="e" d="M130.96234,59.0284l-6.6639-6.97877,12.26533-7.80079a5.00671,5.00671,0,0,0-5.3678-8.45313L114.63923,46.33054l1.65944-4.80192a5.22783,5.22783,0,1,0-9.87894-3.42449l-7.9219,22.8814a5.22485,5.22485,0,1,0,9.8738,3.42112l3.601-10.40167,11.5662,12.113a5.13253,5.13253,0,1,0,7.42354-7.08961Z"/>
        <path class="e" d="M91.00846,34.8734A5.23843,5.23843,0,0,0,84.355,38.10413l-2.90717,8.35275-11.97109.00868,1.70968-4.91621a5.22843,5.22843,0,0,0-9.8808-3.42281L53.37683,61.01326a5.22292,5.22292,0,0,0,9.87035,3.41935l2.93826-8.46873,11.97287-.00868-1.72872,5.03033a5.22405,5.22405,0,1,0,9.87212,3.42112l7.93058-22.878A5.23123,5.23123,0,0,0,91.00846,34.8734Z"/>
      </g>
    </g>
    <g>
      <path class="a" d="M32.45689,117.80689v16.61955c0,4.91465-2.23113,6.919-6.9515,6.919-4.91465,0-6.11112-3.13646-6.11112-6.75778v-1.00219h4.268v.71217c0,2.45676.388,3.62132,2.06933,3.62132s2.06933-1.16456,2.06933-3.62132V117.80689Z"/>
      <path class="a" d="M45.85254,117.80689h5.755l6.11112,23.08619H52.86843l-1.06658-4.88217H45.65827l-1.06714,4.88217h-4.8497Zm.61419,14.389h4.52665l-2.23113-10.3791h-.06439Z"/>
      <path class="a" d="M65.84417,117.80689h8.14741c4.72093,0,6.33787,3.46007,6.33787,6.919,0,4.78587-2.94274,6.95262-7.34006,6.95262H70.50015v9.21454h-4.656Zm4.656,10.444h2.06933c1.84257,0,3.104-1.09961,3.104-3.46007,0-2.263-.90589-3.55637-3.23388-3.55637H70.50015Z"/>
      <path class="a" d="M91.041,117.80689h5.755l6.11112,23.08619h-4.8497l-1.06714-4.88217H90.84674l-1.06658,4.88217H84.9299Zm.61419,14.389h4.52665l-2.23113-10.3791h-.06439Z"/>
      <path class="a" d="M115.75245,117.80689l5.62626,15.81108h.06439V117.80689h4.268v23.08619h-5.30265l-5.69064-16.16716h-.06439v16.16716h-4.26854V117.80689Z"/>
    </g>
  </g>
</svg>
